<svg xmlns="http://www.w3.org/2000/svg" width="552" height="208" viewBox="0 0 552 208">
  <rect width="552" height="208" fill="#FFFFFF"></rect>
<svg x="64" y="56" width="96" height="96" viewBox="0 0 64 64" overflow="visible">
    <rect x="9" y="34.25" width="9" height="3.5" rx="1.6" fill="#6B7682"></rect>
    <rect x="9" y="42.25" width="9" height="3.5" rx="1.6" fill="#6B7682"></rect>
    <rect x="9" y="50.25" width="9" height="3.5" rx="1.6" fill="#6B7682"></rect>
    <rect x="46" y="34.25" width="9" height="3.5" rx="1.6" fill="#6B7682"></rect>
    <rect x="46" y="42.25" width="9" height="3.5" rx="1.6" fill="#16BFB0"></rect>
    <rect x="46" y="50.25" width="9" height="3.5" rx="1.6" fill="#6B7682"></rect>
    <rect x="23.25" y="56" width="3.5" height="8" rx="1.6" fill="#6B7682"></rect>
    <rect x="30.25" y="56" width="3.5" height="8" rx="1.6" fill="#6B7682"></rect>
    <rect x="37.25" y="56" width="3.5" height="8" rx="1.6" fill="#6B7682"></rect>
    <rect x="18" y="30" width="28" height="26" rx="5.5" fill="#1C2127" stroke="#4B5663" stroke-width="2"></rect>
    <circle cx="23.5" cy="35.5" r="1.7" fill="#16BFB0"></circle>
    <path d="M32 4 L34.40 13.60 L44 16 L34.40 18.40 L32 28 L29.60 18.40 L20 16 L29.60 13.60 Z" fill="#E0701B"></path>
    <path d="M32 10 L33.2 14.8 L38 16 L33.2 17.2 L32 22 L30.8 17.2 L26 16 L30.8 14.8 Z" fill="#FFCB8A"></path>
    <path d="M48 6 L51 9 L48 12 L45 9 Z" fill="#FF9E45"></path>
    <path d="M17 9.8 L19.2 12 L17 14.2 L14.8 12 Z" fill="#FF9E45"></path>
  </svg>
  <path d="M215.82 131L193.59 131L193.59 122.73L200.92 122.73L200.92 84.67L193.59 84.67L193.59 76.40L215.82 76.40Q226.74 76.40 232.51 81.94Q238.28 87.48 238.28 98.55L238.28 98.55L238.28 108.85Q238.28 119.92 232.51 125.46Q226.74 131 215.82 131L215.82 131ZM210.28 84.90L210.28 122.50L215.90 122.50Q222.53 122.50 225.72 119.07Q228.92 115.63 228.92 109.16L228.92 109.16L228.92 98.32Q228.92 91.69 225.72 88.30Q222.53 84.90 215.90 84.90L215.90 84.90L210.28 84.90ZM254.58 131L245.61 131L245.61 92.47L254.43 92.47L254.43 96.91L255.75 96.91Q256.61 94.50 258.64 93.40Q260.67 92.31 263.48 92.31L263.48 92.31L268.16 92.31L268.16 100.27L263.32 100.27Q259.42 100.27 257.00 102.34Q254.58 104.40 254.58 108.69L254.58 108.69L254.58 131ZM283.13 131L274.16 131L274.16 92.47L283.13 92.47L283.13 131ZM278.61 87.55L278.61 87.55Q276.19 87.55 274.43 85.95Q272.68 84.36 272.68 81.70L272.68 81.70Q272.68 79.05 274.43 77.45Q276.19 75.85 278.61 75.85L278.61 75.85Q281.18 75.85 282.86 77.45Q284.54 79.05 284.54 81.70L284.54 81.70Q284.54 84.36 282.86 85.95Q281.18 87.55 278.61 87.55ZM315.27 131L301.07 131L288.44 92.47L297.95 92.47L307.47 124.45L308.79 124.45L318.39 92.47L327.90 92.47L315.27 131ZM350.84 132.09L350.84 132.09Q345.06 132.09 340.66 129.63Q336.25 127.18 333.79 122.69Q331.34 118.21 331.34 112.20L331.34 112.20L331.34 111.27Q331.34 105.18 333.75 100.74Q336.17 96.29 340.54 93.83Q344.91 91.38 350.60 91.38L350.60 91.38Q356.22 91.38 360.43 93.83Q364.64 96.29 366.98 100.74Q369.32 105.18 369.32 111.11L369.32 111.11L369.32 114.31L340.38 114.31Q340.54 118.83 343.58 121.56Q346.62 124.29 351.07 124.29L351.07 124.29Q355.44 124.29 357.54 122.38Q359.65 120.47 360.74 118.05L360.74 118.05L368.15 121.87Q367.06 123.98 364.99 126.36Q362.93 128.74 359.49 130.41Q356.06 132.09 350.84 132.09ZM340.46 107.52L340.46 107.52L360.20 107.52Q359.88 103.70 357.27 101.44Q354.66 99.18 350.52 99.18L350.52 99.18Q346.23 99.18 343.66 101.44Q341.09 103.70 340.46 107.52ZM385.55 131L376.58 131L376.58 92.47L385.39 92.47L385.39 96.91L386.72 96.91Q387.57 94.50 389.60 93.40Q391.63 92.31 394.44 92.31L394.44 92.31L399.12 92.31L399.12 100.27L394.28 100.27Q390.38 100.27 387.96 102.34Q385.55 104.40 385.55 108.69L385.55 108.69L385.55 131ZM403.25 111.89L403.25 111.89L403.25 110.72Q403.25 104.64 405.67 100.31Q408.09 95.98 412.14 93.68Q416.20 91.38 421.04 91.38L421.04 91.38Q426.50 91.38 429.34 93.33Q432.19 95.28 433.52 97.54L433.52 97.54L434.84 97.54L434.84 92.47L443.58 92.47L443.58 138.33Q443.58 142.15 441.39 144.38Q439.21 146.60 435.47 146.60L435.47 146.60L409.57 146.60L409.57 138.80L432.42 138.80Q434.69 138.80 434.69 136.46L434.69 136.46L434.69 125.31L433.36 125.31Q432.50 126.63 431.02 128.00Q429.54 129.36 427.12 130.30Q424.70 131.23 421.04 131.23L421.04 131.23Q416.20 131.23 412.14 128.93Q408.09 126.63 405.67 122.30Q403.25 117.97 403.25 111.89ZM423.53 123.36L423.53 123.36Q428.37 123.36 431.57 120.28Q434.76 117.19 434.76 111.66L434.76 111.66L434.76 110.88Q434.76 105.26 431.60 102.22Q428.45 99.18 423.53 99.18L423.53 99.18Q418.70 99.18 415.46 102.22Q412.22 105.26 412.22 110.88L412.22 110.88L412.22 111.66Q412.22 117.19 415.46 120.28Q418.70 123.36 423.53 123.36ZM470.64 132.09L470.64 132.09Q464.87 132.09 460.46 129.63Q456.06 127.18 453.60 122.69Q451.14 118.21 451.14 112.20L451.14 112.20L451.14 111.27Q451.14 105.18 453.56 100.74Q455.98 96.29 460.35 93.83Q464.72 91.38 470.41 91.38L470.41 91.38Q476.03 91.38 480.24 93.83Q484.45 96.29 486.79 100.74Q489.13 105.18 489.13 111.11L489.13 111.11L489.13 114.31L460.19 114.31Q460.35 118.83 463.39 121.56Q466.43 124.29 470.88 124.29L470.88 124.29Q475.25 124.29 477.35 122.38Q479.46 120.47 480.55 118.05L480.55 118.05L487.96 121.87Q486.87 123.98 484.80 126.36Q482.73 128.74 479.30 130.41Q475.87 132.09 470.64 132.09ZM460.27 107.52L460.27 107.52L480.00 107.52Q479.69 103.70 477.08 101.44Q474.47 99.18 470.33 99.18L470.33 99.18Q466.04 99.18 463.47 101.44Q460.89 103.70 460.27 107.52Z" fill="#1C2127"></path>
</svg>